<?xml version="1.0" encoding="UTF-8"?>
<svg xmlns="http://www.w3.org/2000/svg" xmlns:xlink="http://www.w3.org/1999/xlink" width="611.999983" height="791.999983" viewBox="0 0 611.999983 791.999983">
<path fill-rule="nonzero" fill="rgb(98.823547%, 0%, 21.176147%)" fill-opacity="1" d="M 394.082031 383.242188 L 333.21875 334.324219 C 330.082031 331.800781 328.144531 328.078125 327.878906 324.0625 L 322.503906 242.890625 C 321.496094 227.667969 339.085938 218.53125 350.960938 228.109375 L 452.773438 310.214844 C 463.007812 318.46875 462.964844 334.074219 452.691406 342.273438 L 401.324219 383.257812 C 399.203125 384.949219 396.195312 384.941406 394.082031 383.242188 "/>
<path fill-rule="nonzero" fill="rgb(0%, 83.921814%, 69.804382%)" fill-opacity="1" d="M 207.460938 391.332031 L 152.566406 346.523438 C 141.460938 337.460938 141.425781 320.5 152.496094 311.394531 L 284.691406 202.628906 C 293.1875 195.636719 306.023438 201.296875 306.597656 212.28125 L 311.507812 306.761719 C 311.660156 309.699219 310.40625 312.535156 308.128906 314.398438 L 214.136719 391.328125 C 212.195312 392.917969 209.402344 392.917969 207.460938 391.332031 "/>
<path fill-rule="nonzero" fill="rgb(0%, 0%, 0%)" fill-opacity="1" d="M 225.230469 399.496094 L 280.371094 353.488281 C 295.425781 340.925781 317.3125 340.925781 332.367188 353.488281 L 382.535156 395.335938 C 384.164062 396.695312 384.148438 399.203125 382.503906 400.542969 L 324.132812 448.039062 C 310.210938 459.367188 290.214844 459.226562 276.457031 447.703125 L 225.226562 404.804688 C 223.574219 403.421875 223.574219 400.878906 225.230469 399.496094 "/>
<path fill-rule="nonzero" fill="rgb(0%, 83.921814%, 69.804382%)" fill-opacity="1" d="M 196.882812 401.234375 L 129.675781 346.371094 C 127.625 344.695312 124.558594 346.210938 124.644531 348.855469 L 127.351562 435.359375 C 127.710938 446.953125 141.367188 452.9375 150.136719 445.347656 L 196.933594 404.859375 C 198.046875 403.898438 198.023438 402.164062 196.882812 401.234375 "/>
<path fill-rule="nonzero" fill="rgb(0%, 0%, 0%)" fill-opacity="1" d="M 205.953125 415.375 L 156.277344 455.542969 C 145.277344 464.4375 145.296875 481.21875 156.316406 490.089844 L 267.296875 579.4375 C 276.898438 587.167969 291.117188 579.839844 290.394531 567.535156 L 285.144531 478.132812 C 284.972656 475.207031 283.578125 472.488281 281.300781 470.636719 L 213.296875 415.382812 C 211.160156 413.648438 208.09375 413.644531 205.953125 415.375 "/>
<path fill-rule="nonzero" fill="rgb(0%, 0%, 0%)" fill-opacity="1" d="M 304.792969 481.0625 L 391.09375 408.886719 C 392.847656 407.421875 395.378906 407.347656 397.214844 408.710938 L 447.957031 446.402344 C 463.09375 457.644531 463.625 480.117188 449.039062 492.0625 L 333.992188 586.296875 C 322.960938 595.332031 306.351562 587.855469 305.800781 573.609375 L 302.417969 486.414062 C 302.339844 484.359375 303.214844 482.382812 304.792969 481.0625 "/>
<path fill-rule="nonzero" fill="rgb(98.823547%, 0%, 21.176147%)" fill-opacity="1" d="M 410.988281 393.175781 L 459.492188 352.644531 C 468.617188 345.015625 482.542969 350.964844 483.339844 362.832031 L 489.175781 449.554688 C 489.46875 453.875 484.457031 456.449219 481.113281 453.703125 L 411 396.066406 C 410.09375 395.320312 410.085938 393.929688 410.988281 393.175781 "/>
</svg>
