<?xml version="1.0" encoding="UTF-8"?>
<svg xmlns="http://www.w3.org/2000/svg" viewBox="124 198 365 395">
  <path fill="#fc0036" d="M 394.08 383.24 L 333.21 334.32 C 330.08 331.8 328.14 328.07 327.87 324.06 L 322.5 242.89 C 321.49 227.66 339.08 218.53 350.96 228.1 L 452.77 310.21 C 463 318.46 462.96 334.07 452.69 342.27 L 401.32 383.25 C 399.2 384.94 396.19 384.94 394.08 383.24"/>
  <path fill="#00d6b2" d="M 207.46 391.33 L 152.56 346.52 C 141.46 337.46 141.42 320.5 152.49 311.39 L 284.69 202.62 C 293.18 195.63 306.02 201.29 306.59 212.28 L 311.5 306.76 C 311.66 309.69 310.4 312.53 308.12 314.39 L 214.13 391.32 C 212.19 392.91 209.4 392.91 207.46 391.33"/>
  <path fill="#000000" d="M 225.23 399.49 L 280.37 353.48 C 295.42 340.92 317.31 340.92 332.36 353.48 L 382.53 395.33 C 384.16 396.69 384.14 399.2 382.5 400.54 L 324.13 448.03 C 310.21 459.36 290.21 459.22 276.45 447.7 L 225.22 404.8 C 223.57 403.42 223.57 400.87 225.23 399.49"/>
  <path fill="#00d6b2" d="M 196.88 401.23 L 129.67 346.37 C 127.62 344.69 124.55 346.21 124.64 348.85 L 127.35 435.35 C 127.71 446.95 141.36 452.93 150.13 445.34 L 196.93 404.85 C 198.04 403.89 198.02 402.16 196.88 401.23"/>
  <path fill="#000000" d="M 205.95 415.37 L 156.27 455.54 C 145.27 464.43 145.29 481.21 156.31 490.08 L 267.29 579.43 C 276.89 587.16 291.11 579.83 290.39 567.53 L 285.14 478.13 C 284.97 475.2 283.57 472.48 281.3 470.63 L 213.29 415.38 C 211.16 413.64 208.09 413.64 205.95 415.37"/>
  <path fill="#000000" d="M 304.79 481.06 L 391.09 408.88 C 392.84 407.42 395.37 407.34 397.21 408.71 L 447.95 446.4 C 463.09 457.64 463.62 480.11 449.03 492.06 L 333.99 586.29 C 322.96 595.33 306.35 587.85 305.8 573.6 L 302.41 486.41 C 302.33 484.35 303.21 482.38 304.79 481.06"/>
  <path fill="#fc0036" d="M 410.98 393.17 L 459.49 352.64 C 468.61 345.01 482.54 350.96 483.33 362.83 L 489.17 449.55 C 489.46 453.87 484.45 456.44 481.11 453.7 L 411 396.06 C 410.09 395.32 410.08 393.92 410.98 393.17"/>
</svg>
